<?xml version="1.0" encoding="utf-8"?>
<!-- Generator: Adobe Illustrator 16.0.0, SVG Export Plug-In . SVG Version: 6.00 Build 0)  -->
<!DOCTYPE svg PUBLIC "-//W3C//DTD SVG 1.1//EN" "http://www.w3.org/Graphics/SVG/1.1/DTD/svg11.dtd">
<svg version="1.1" id="Layer_1" xmlns="http://www.w3.org/2000/svg" xmlns:xlink="http://www.w3.org/1999/xlink" x="0px" y="0px"
	 width="107.5px" height="114.5px" viewBox="0 0 107.5 114.5" enable-background="new 0 0 107.5 114.5" xml:space="preserve">
<g>
	<circle fill="none" cx="53.754" cy="57.249" r="43.608"/>
	<text transform="matrix(0.7268 -0.6868 0.6868 0.7268 23.2939 32.8652)"><tspan x="0" y="0" fill="#C49A61" font-family="'MongolianBaiti'" font-size="15">O</tspan><tspan x="13.928" y="0.9" fill="#C49A61" font-family="'MongolianBaiti'" font-size="15" rotate="15.484"> </tspan><tspan x="20.632" y="2.498" fill="#C49A61" font-family="'MongolianBaiti'" font-size="15" rotate="32.732">M</tspan><tspan x="33.684" y="11.762" fill="#C49A61" font-family="'MongolianBaiti'" font-size="15" rotate="54.404">N</tspan><tspan x="41.058" y="23.544" fill="#C49A61" font-family="'MongolianBaiti'" font-size="15" rotate="70.814">I</tspan><tspan x="43.613" y="31.344" fill="#C49A61" font-family="'MongolianBaiti'" font-size="15" rotate="85.941">E</tspan><tspan x="43.746" y="43.751" fill="#C49A61" font-family="'MongolianBaiti'" font-size="15" rotate="100.301"> </tspan><tspan x="42.614" y="50.595" fill="#C49A61" font-family="'MongolianBaiti'" font-size="15" rotate="116.437">&amp;</tspan><tspan x="35.176" y="63.33" fill="#C49A61" font-family="'MongolianBaiti'" font-size="15" rotate="132.38"> </tspan><tspan x="30.506" y="68.519" fill="#C49A61" font-family="'MongolianBaiti'" font-size="15" rotate="147.912">U</tspan><tspan x="18.853" y="75.48" fill="#C49A61" font-family="'MongolianBaiti'" font-size="15" rotate="169.749">M</tspan><tspan x="2.716" y="77.277" fill="#C49A61" font-family="'MongolianBaiti'" font-size="15" rotate="-172.397">I</tspan><tspan x="-5.424" y="76.037" fill="#C49A61" font-family="'MongolianBaiti'" font-size="15" rotate="-157.081">E</tspan><tspan x="-16.459" y="70.65" fill="#C49A61" font-family="'MongolianBaiti'" font-size="15" rotate="-141.338">J</tspan><tspan x="-23.296" y="64.671" fill="#C49A61" font-family="'MyriadPro-Regular'" font-size="15" rotate="-126.805">Ę</tspan><tspan x="-29.243" y="56.007" fill="#C49A61" font-family="'MyriadPro-Regular'" font-size="15" rotate="-111.048">T</tspan><tspan x="-32.743" y="46.145" fill="#C49A61" font-family="'MyriadPro-Regular'" font-size="15" rotate="-93.848">N</tspan><tspan x="-33.159" y="33.406" fill="#C49A61" font-family="'MyriadPro-Regular'" font-size="15" rotate="-74.67">O</tspan><tspan x="-28.988" y="20.789" fill="#C49A61" font-family="'MyriadPro-Regular'" font-size="15" rotate="-56.998">Ś</tspan><tspan x="-22.996" y="12.194" fill="#C49A61" font-family="'MyriadPro-Regular'" font-size="15" rotate="-40.663">C</tspan><tspan x="-13.488" y="4.969" fill="#C49A61" font-family="'MyriadPro-Regular'" font-size="15" rotate="-26.579">I</tspan></text>
	<path fill="none" d="M39.273,98.386C16.554,90.39,4.622,65.494,12.616,42.771c7.995-22.716,32.893-34.65,55.612-26.657
		c22.715,7.995,34.652,32.895,26.654,55.611C86.889,94.445,61.989,106.379,39.273,98.386z"/>
</g>
<text transform="matrix(1 0 0 1 137.5938 225.6523)" fill="#C49A61" font-family="'MyriadPro-Regular'" font-size="17">ALEKSANDRA LISOWSKA</text>
</svg>
