<?xml version="1.0" encoding="utf-8"?>
<!-- Generator: Adobe Illustrator 16.0.0, SVG Export Plug-In . SVG Version: 6.00 Build 0)  -->
<!DOCTYPE svg PUBLIC "-//W3C//DTD SVG 1.1//EN" "http://www.w3.org/Graphics/SVG/1.1/DTD/svg11.dtd">
<svg version="1.1" id="Layer_1" xmlns="http://www.w3.org/2000/svg" xmlns:xlink="http://www.w3.org/1999/xlink" x="0px" y="0px"
	 width="107.5px" height="114.5px" viewBox="0 0 107.5 114.5" enable-background="new 0 0 107.5 114.5" xml:space="preserve">
<g>
	<circle fill="none" cx="53.754" cy="57.249" r="43.608"/>
	<text transform="matrix(0.707 -0.7072 0.7072 0.707 23.4902 32.8638)"><tspan x="0" y="0" fill="#878D8E" font-family="'MongolianBaiti'" font-size="15">F</tspan><tspan x="7.572" y="-0.23" fill="#878D8E" font-family="'MongolianBaiti'" font-size="15" rotate="12.945">O</tspan><tspan x="17.332" y="2.014" fill="#878D8E" font-family="'MongolianBaiti'" font-size="15" rotate="26.586">T</tspan><tspan x="24.877" y="5.577" fill="#878D8E" font-family="'MongolianBaiti'" font-size="15" rotate="40.083">O</tspan><tspan x="32.562" y="11.887" fill="#878D8E" font-family="'MongolianBaiti'" font-size="15" rotate="54.642">G</tspan><tspan x="38.365" y="19.966" fill="#878D8E" font-family="'MongolianBaiti'" font-size="15" rotate="68.798">R</tspan><tspan x="41.823" y="28.456" fill="#878D8E" font-family="'MongolianBaiti'" font-size="15" rotate="82.868">A</tspan><tspan x="43.019" y="38.423" fill="#878D8E" font-family="'MongolianBaiti'" font-size="15" rotate="95.781">F</tspan><tspan x="42.085" y="46.288" font-family="'MongolianBaiti'" font-size="15" rotate="104.119"> </tspan></text>
	<path fill="none" d="M39.273,98.386C16.554,90.39,4.622,65.494,12.616,42.771c7.995-22.716,32.893-34.65,55.612-26.657
		c22.715,7.995,34.652,32.895,26.654,55.611C86.889,94.445,61.989,106.379,39.273,98.386z"/>
	<text transform="matrix(0.3541 0.9352 -0.9352 0.3541 88.418 38.7393)"><tspan x="0" y="0" fill="#C49A61" font-family="'MongolianBaiti'" font-size="14">A</tspan><tspan x="9.413" y="0.007" fill="#C49A61" font-family="'MongolianBaiti'" font-size="14" rotate="12.616">L</tspan><tspan x="17.144" y="1.669" fill="#C49A61" font-family="'MongolianBaiti'" font-size="14" rotate="24.274">E</tspan><tspan x="24.369" y="4.752" fill="#C49A61" font-family="'MongolianBaiti'" font-size="14" rotate="36.911">K</tspan><tspan x="31.9" y="10.471" fill="#C49A61" font-family="'MongolianBaiti'" font-size="14" rotate="48.927">S</tspan><tspan x="36.727" y="15.711" fill="#C49A61" font-family="'MongolianBaiti'" font-size="14" rotate="61.12">A</tspan><tspan x="41.319" y="23.85" fill="#C49A61" font-family="'MongolianBaiti'" font-size="14" rotate="74.815">N</tspan><tspan x="43.855" y="32.859" fill="#C49A61" font-family="'MongolianBaiti'" font-size="14" rotate="88.416">D</tspan><tspan x="44.156" y="42.229" fill="#C49A61" font-family="'MongolianBaiti'" font-size="14" rotate="101.528">R</tspan><tspan x="42.573" y="50.663" fill="#C49A61" font-family="'MongolianBaiti'" font-size="14" rotate="114.716">A</tspan><tspan x="38.33" y="59.324" fill="#C49A61" font-family="'MongolianBaiti'" font-size="14" rotate="124.077"> </tspan><tspan x="36.44" y="62.126" fill="#C49A61" font-family="'MongolianBaiti'" font-size="14" rotate="128.989"> </tspan><tspan x="34.622" y="64.703" fill="#C49A61" font-family="'MongolianBaiti'" font-size="14" rotate="137.194">L</tspan><tspan x="28.594" y="70.127" fill="#C49A61" font-family="'MongolianBaiti'" font-size="14" rotate="146.296">I</tspan><tspan x="25.127" y="72.613" fill="#C49A61" font-family="'MongolianBaiti'" font-size="14" rotate="154.895">S</tspan><tspan x="18.761" y="75.81" fill="#C49A61" font-family="'MongolianBaiti'" font-size="14" rotate="167.007">O</tspan><tspan x="9.832" y="78.21" fill="#C49A61" font-family="'MongolianBaiti'" font-size="14" rotate="-177.389">W</tspan><tspan x="-2.527" y="77.413" fill="#C49A61" font-family="'MongolianBaiti'" font-size="14" rotate="-163.189">S</tspan><tspan x="-9.407" y="75.538" fill="#C49A61" font-family="'MongolianBaiti'" font-size="14" rotate="-150.987">K</tspan><tspan x="-17.622" y="71.079" fill="#C49A61" font-family="'MongolianBaiti'" font-size="14" rotate="-137.448">A</tspan></text>
</g>
<text transform="matrix(1 0 0 1 137.5938 225.6523)" fill="#C49A61" font-family="'MyriadPro-Regular'" font-size="17">ALEKSANDRA LISOWSKA</text>
</svg>
