<?xml version="1.0" encoding="utf-8"?>
<!-- Generator: Adobe Illustrator 16.0.0, SVG Export Plug-In . SVG Version: 6.00 Build 0)  -->
<!DOCTYPE svg PUBLIC "-//W3C//DTD SVG 1.1//EN" "http://www.w3.org/Graphics/SVG/1.1/DTD/svg11.dtd">
<svg version="1.1" id="Layer_1" xmlns="http://www.w3.org/2000/svg" xmlns:xlink="http://www.w3.org/1999/xlink" x="0px" y="0px"
	 width="250.5px" height="146.54px" viewBox="0 0 250.5 146.54" enable-background="new 0 0 250.5 146.54" xml:space="preserve">
<rect y="2.167" fill="#FFFFFF" width="250.5" height="144.373"/>
<circle fill="#C39960" cx="49.658" cy="69.124" r="37.871"/>
<line fill="none" stroke="#C49A61" stroke-width="2" stroke-miterlimit="10" x1="120.667" y1="182.218" x2="120.667" y2="242.058"/>
<line fill="none" stroke="#C49A61" stroke-width="2" stroke-miterlimit="10" x1="151.976" y1="190.03" x2="90.656" y2="231.731"/>
<line fill="none" stroke="#C49A61" stroke-width="2" stroke-miterlimit="10" x1="120.667" y1="182.218" x2="96.549" y2="240.38"/>
<line fill="none" stroke="#C49A61" stroke-width="2" stroke-miterlimit="10" x1="120.57" y1="210.746" x2="145.329" y2="239.242"/>
<line fill="none" stroke="#C49A61" stroke-width="2" stroke-miterlimit="10" x1="-137.639" y1="146.54" x2="-137.639" y2="206.38"/>
<line fill="none" stroke="#C49A61" stroke-width="2" stroke-miterlimit="10" x1="-106.33" y1="154.352" x2="-167.649" y2="196.053"/>
<line fill="none" stroke="#C49A61" stroke-width="2" stroke-miterlimit="10" x1="-137.639" y1="146.54" x2="-161.757" y2="204.702"/>
<line fill="none" stroke="#C49A61" stroke-width="2" stroke-miterlimit="10" x1="-137.735" y1="175.067" x2="-112.977" y2="203.563"/>
<line fill="none" stroke="#C49A61" stroke-width="2" stroke-miterlimit="10" x1="24.102" y1="160.951" x2="24.102" y2="205.802"/>
<line fill="none" stroke="#C49A61" stroke-width="2" stroke-miterlimit="10" x1="24.565" y1="184.301" x2="44.877" y2="202.347"/>
<line fill="none" stroke="#C49A61" stroke-width="2" stroke-miterlimit="10" x1="24.102" y1="161.037" x2="5.826" y2="201.996"/>
<line fill="none" stroke="#C49A61" stroke-width="2" stroke-miterlimit="10" x1="6.295" y1="197.01" x2="49.658" y2="163.811"/>
<circle fill="none" stroke="#C49A61" stroke-width="2" stroke-miterlimit="10" cx="121.744" cy="211.3" r="37.871"/>
<line fill="none" stroke="#FFFFFF" stroke-width="2" stroke-miterlimit="10" x1="48.581" y1="31.251" x2="48.581" y2="106.994"/>
<line fill="none" stroke="#FFFFFF" stroke-width="2" stroke-miterlimit="10" x1="79.89" y1="47.853" x2="18.57" y2="89.554"/>
<line fill="none" stroke="#FFFFFF" stroke-width="2" stroke-miterlimit="10" x1="48.581" y1="31.991" x2="24.463" y2="98.204"/>
<line fill="none" stroke="#FFFFFF" stroke-width="2" stroke-miterlimit="10" x1="48.484" y1="68.569" x2="73.917" y2="98.204"/>
<line fill="none" stroke="#C49A61" stroke-width="2" stroke-miterlimit="10" x1="150.898" y1="36.483" x2="150.898" y2="112.225"/>
<line fill="none" stroke="#C49A61" stroke-width="2" stroke-miterlimit="10" x1="182.207" y1="53.084" x2="120.888" y2="94.786"/>
<line fill="none" stroke="#C49A61" stroke-width="2" stroke-miterlimit="10" x1="150.898" y1="37.222" x2="126.78" y2="103.435"/>
<line fill="none" stroke="#C49A61" stroke-width="2" stroke-miterlimit="10" x1="150.802" y1="73.8" x2="175.561" y2="102.296"/>
<circle fill="none" stroke="#C49A61" stroke-width="2" stroke-miterlimit="10" cx="151.976" cy="74.355" r="37.871"/>
</svg>
