<svg width="94" height="94" viewBox="0 0 94 94" fill="none" xmlns="http://www.w3.org/2000/svg">
<mask id="mask0_213_2" style="mask-type:luminance" maskUnits="userSpaceOnUse" x="7" y="13" width="80" height="68">
<path d="M37.2082 58.7502V64.6252C37.2082 68.2608 35.7639 71.7476 33.1931 74.3184C30.6223 76.8892 27.1355 78.3335 23.4998 78.3335C19.8642 78.3335 16.3774 76.8892 13.8066 74.3184C11.2358 71.7476 9.7915 68.2608 9.7915 64.6252V37.2085M56.7915 58.7502V64.6252C56.7915 68.2608 58.2358 71.7476 60.8066 74.3184C63.3774 76.8892 66.8642 78.3335 70.4998 78.3335C74.1355 78.3335 77.6223 76.8892 80.1931 74.3184C82.7639 71.7476 84.2082 68.2608 84.2082 64.6252V37.2085" stroke="white" stroke-width="4" stroke-linecap="round" stroke-linejoin="round"/>
<path d="M62.6665 15.6667H31.3332C19.436 15.6667 9.7915 25.3113 9.7915 37.2084C9.7915 49.1056 19.436 58.7501 31.3332 58.7501H62.6665C74.5636 58.7501 84.2082 49.1056 84.2082 37.2084C84.2082 25.3113 74.5636 15.6667 62.6665 15.6667Z" fill="white" stroke="white" stroke-width="4"/>
<path d="M41.1247 37.2083H25.458M33.2913 29.375V45.0417" stroke="black" stroke-width="4" stroke-linecap="round" stroke-linejoin="round"/>
<path d="M70.4998 33.2917C70.4998 31.1286 68.7463 29.375 66.5832 29.375C64.4201 29.375 62.6665 31.1286 62.6665 33.2917C62.6665 35.4548 64.4201 37.2083 66.5832 37.2083C68.7463 37.2083 70.4998 35.4548 70.4998 33.2917Z" fill="black"/>
<path d="M62.6663 43.0834C62.6663 40.9203 60.9128 39.1667 58.7497 39.1667C56.5866 39.1667 54.833 40.9203 54.833 43.0834C54.833 45.2465 56.5866 47.0001 58.7497 47.0001C60.9128 47.0001 62.6663 45.2465 62.6663 43.0834Z" fill="black"/>
</mask>
<g mask="url(#mask0_213_2)">
<path d="M0 0H94V94H0V0Z" fill="#B29BC7"/>
</g>
</svg>
