<svg width="60" height="58" viewBox="0 0 60 58" fill="none" xmlns="http://www.w3.org/2000/svg">
<g clip-path="url(#clip0_47_161)">
<path fill-rule="evenodd" clip-rule="evenodd" d="M29.9106 0C13.3708 0 0 13.2917 0 29.7353C0 42.8795 8.56714 54.0059 20.452 57.9438C21.938 58.2399 22.4822 57.304 22.4822 56.5168C22.4822 55.8274 22.4333 53.4645 22.4333 51.0025C14.1129 52.7752 12.3802 47.4579 12.3802 47.4579C11.0431 44.0117 9.06184 43.126 9.06184 43.126C6.33857 41.3045 9.2602 41.3045 9.2602 41.3045C12.281 41.5014 13.8661 44.3567 13.8661 44.3567C16.5398 48.8855 20.8482 47.6059 22.5814 46.8181C22.8288 44.898 23.6216 43.5689 24.4635 42.8306C17.8273 42.1412 10.8453 39.5814 10.8453 28.1596C10.8453 24.9104 12.0331 22.2521 13.9151 20.1846C13.6182 19.4463 12.578 16.3935 14.2127 12.3075C14.2127 12.3075 16.7382 11.5196 22.4327 15.3597C24.8707 14.7088 27.385 14.3777 29.9106 14.3749C32.4361 14.3749 35.0106 14.7199 37.388 15.3597C43.0831 11.5196 45.6086 12.3075 45.6086 12.3075C47.2433 16.3935 46.2024 19.4463 45.9055 20.1846C47.8371 22.2521 48.9759 24.9104 48.9759 28.1596C48.9759 39.5814 41.9939 42.0917 35.3082 42.8306C36.398 43.7658 37.3384 45.5379 37.3384 48.3442C37.3384 52.3317 37.2894 55.532 37.2894 56.5162C37.2894 57.304 37.8343 58.2399 39.3196 57.9444C51.2045 54.0052 59.7716 42.8795 59.7716 29.7353C59.8206 13.2917 46.4008 0 29.9106 0Z" fill="#24292F"/>
</g>
<defs>
<clipPath id="clip0_47_161">
<rect width="60" height="58" fill="white"/>
</clipPath>
</defs>
</svg>
