<svg width="44" height="44" viewBox="0 0 44 44" fill="none" xmlns="http://www.w3.org/2000/svg">
<g clip-path="url(#clip0_47_166)">
<path d="M10.242 14.1553H1.4089C1.01687 14.1553 0.699219 14.4731 0.699219 14.865V43.2418C0.699219 43.6339 1.01687 43.9515 1.4089 43.9515H10.242C10.634 43.9515 10.9516 43.6339 10.9516 43.2418V14.865C10.9516 14.4731 10.634 14.1553 10.242 14.1553Z" fill="#24292F"/>
<path d="M5.82872 0.0483398C2.61474 0.0483398 0 2.66024 0 5.87068C0 9.08253 2.61474 11.6954 5.82872 11.6954C9.04016 11.6954 11.6528 9.08239 11.6528 5.87068C11.6529 2.66024 9.04016 0.0483398 5.82872 0.0483398Z" fill="#24292F"/>
<path d="M32.7098 13.45C29.1621 13.45 26.5395 14.975 24.9489 16.7079V14.8649C24.9489 14.473 24.6312 14.1552 24.2392 14.1552H15.78C15.388 14.1552 15.0703 14.473 15.0703 14.8649V43.2418C15.0703 43.6338 15.388 43.9515 15.78 43.9515H24.5938C24.9858 43.9515 25.3034 43.6338 25.3034 43.2418V29.2018C25.3034 24.4707 26.5885 22.6275 29.8865 22.6275C33.4784 22.6275 33.7638 25.5823 33.7638 29.4452V43.2419C33.7638 43.6339 34.0814 43.9516 34.4735 43.9516H43.2905C43.6825 43.9516 44.0002 43.6339 44.0002 43.2419V27.6767C44.0002 20.6417 42.6587 13.45 32.7098 13.45Z" fill="#24292F"/>
</g>
<defs>
<clipPath id="clip0_47_166">
<rect width="44" height="44" fill="white"/>
</clipPath>
</defs>
</svg>
