<svg width="72" height="72" viewBox="0 0 72 72" fill="none" xmlns="http://www.w3.org/2000/svg">
<g clip-path="url(#clip0_65_578)">
<path d="M5.06738 35.6492C5.06738 47.7546 12.1024 58.216 22.3036 63.1734L7.71517 23.2029C6.01826 27.0064 5.06738 31.2155 5.06738 35.6492Z" fill="#B29BC7"/>
<path d="M56.296 34.1058C56.296 30.3261 54.9384 27.7086 53.7739 25.6713C52.2237 23.1521 50.7706 21.0187 50.7706 18.4995C50.7706 15.6882 52.9028 13.0713 55.9061 13.0713C56.0417 13.0713 56.1703 13.0881 56.3024 13.0957C50.8614 8.11088 43.6123 5.06738 35.6503 5.06738C24.966 5.06738 15.5661 10.5492 10.0977 18.8522C10.8152 18.8737 11.4914 18.8888 12.0657 18.8888C15.2646 18.8888 20.2163 18.5007 20.2163 18.5007C21.8649 18.4035 22.0593 20.8249 20.4124 21.0199C20.4124 21.0199 18.7556 21.2148 16.9121 21.3114L28.0491 54.4379L34.7419 34.3653L29.977 21.3103C28.3302 21.2137 26.77 21.0187 26.77 21.0187C25.122 20.9221 25.3152 18.4023 26.9632 18.4995C26.9632 18.4995 32.0138 18.8877 35.0189 18.8877C38.2172 18.8877 43.1694 18.4995 43.1694 18.4995C44.8192 18.4023 45.013 20.8238 43.3655 21.0187C43.3655 21.0187 41.7053 21.2137 39.8652 21.3103L50.9172 54.1859L53.9677 43.9922C55.2899 39.7621 56.296 36.7239 56.296 34.1058Z" fill="#B29BC7"/>
<path d="M36.1866 38.3242L27.0107 64.9877C29.7505 65.7931 32.6479 66.2337 35.6501 66.2337C39.2115 66.2337 42.6269 65.618 45.806 64.5001C45.7239 64.3691 45.6494 64.2301 45.5883 64.0788L36.1866 38.3242Z" fill="#B29BC7"/>
<path d="M62.4856 20.9763C62.6171 21.9505 62.6916 22.9962 62.6916 24.1211C62.6916 27.2245 62.112 30.7132 60.3662 35.0754L51.0244 62.0845C60.1165 56.7826 66.232 46.9322 66.232 35.6497C66.2326 30.3326 64.8744 25.3327 62.4856 20.9763Z" fill="#B29BC7"/>
<path d="M35.6503 0C15.9932 0 0 15.9921 0 35.6491C0 55.3085 15.9932 71.3 35.6503 71.3C55.3068 71.3 71.3023 55.3085 71.3023 35.6491C71.3017 15.9921 55.3068 0 35.6503 0ZM35.6503 69.6659C16.8946 69.6659 1.63465 54.4059 1.63465 35.6491C1.63465 16.8935 16.8941 1.63465 35.6503 1.63465C54.4054 1.63465 69.6642 16.8935 69.6642 35.6491C69.6642 54.4059 54.4054 69.6659 35.6503 69.6659Z" fill="#B29BC7"/>
</g>
<defs>
<clipPath id="clip0_65_578">
<rect width="71.2982" height="71.3" fill="white"/>
</clipPath>
</defs>
</svg>
